<?xml version="1.0" encoding="UTF-8" standalone="no"?>
<!-- Generator: Adobe Illustrator 12.0.1, SVG Export Plug-In . SVG Version: 6.00 Build 51448)  -->
<svg xmlns:dc="http://purl.org/dc/elements/1.1/" xmlns:cc="http://web.resource.org/cc/" xmlns:rdf="http://www.w3.org/1999/02/22-rdf-syntax-ns#" xmlns:svg="http://www.w3.org/2000/svg" xmlns="http://www.w3.org/2000/svg" xmlns:sodipodi="http://inkscape.sourceforge.net/DTD/sodipodi-0.dtd" xmlns:inkscape="http://www.inkscape.org/namespaces/inkscape" version="1.0" id="Layer_1" width="470pt" height="120pt" viewBox="0 0 704.686 280.669" overflow="visible" enable-background="new 0 0 704.686 280.669" xml:space="preserve" sodipodi:version="0.32" inkscape:version="0.43" sodipodi:docname="cyklebudnewyork_Logo_DMC_2006.svg" sodipodi:docbase="C:\foo\wikipedia\transfer"><defs id="defs1495"/><sodipodi:namedview inkscape:window-height="721" inkscape:window-width="1024" inkscape:pageshadow="2" inkscape:pageopacity="0.0" borderopacity="1.0" bordercolor="#666666" pagecolor="#ffffff" id="base" inkscape:zoom="1.0231508" inkscape:cx="360.55292" inkscape:cy="152.23319" inkscape:window-x="-4" inkscape:window-y="-4" inkscape:current-layer="Layer_1"/>




<g id="g1499" transform="matrix(1.965541,0,0,1.965541,-334.9741,7.744393)"><g id="g1404">
	<path id="path1406" d="M 339.653,57.664 C 339.653,60.839 341.473,65.825 345.32,70.812 C 345.778,71.496 346.234,71.947 346.907,72.629 L 346.907,76.031 L 346.907,76.938 L 346.907,80.112 C 344.414,78.752 338.972,75.804 332.625,74.443 C 333.529,77.617 332.405,80.34 328.765,80.34 C 326.044,80.34 324.007,78.752 321.284,78.752 C 318.341,78.752 316.526,80.34 316.526,82.152 C 316.526,83.964 316.756,86.008 318.11,88.274 C 317.657,88.274 311.765,86.234 311.765,82.152 C 311.765,78.295 313.58,75.578 316.301,73.992 C 301.558,76.031 289.766,83.06 279.109,90.769 C 279.562,94.168 280.695,97.343 282.285,99.839 C 282.735,94.621 285.689,88.5 292.718,88.5 C 298.615,88.5 304.512,90.316 305.869,99.159 C 304.282,98.477 302.473,97.8 299.972,97.8 C 297.935,97.8 295.664,100.747 295.664,103.011 C 295.664,107.322 299.749,111.629 306.55,111.629 C 324.008,111.629 329,98.477 328.766,90.542 L 331.492,90.542 C 331.492,108.683 318.341,116.389 306.55,116.389 C 289.092,116.389 278.889,106.642 275.718,93.264 C 260.739,104.374 247.594,115.939 231.039,115.939 C 223.788,115.939 216.979,113.217 216.979,105.051 C 216.979,96.891 221.97,95.076 226.047,95.076 C 230.81,95.076 234.445,98.476 234.445,101.65 C 234.445,105.506 230.588,107.094 228.317,106.187 C 229.451,105.051 229.904,103.921 229.904,101.877 C 229.904,100.065 227.411,97.8 225.144,97.8 C 221.066,97.8 219.016,100.972 219.016,105.051 C 219.016,110.269 222.873,112.764 228.317,112.764 C 239.879,112.764 243.733,89.182 255.527,89.182 C 261.202,89.182 262.336,93.491 262.336,95.077 C 262.336,96.439 261.875,99.839 261.875,99.839 C 266.185,96.892 270.49,93.491 275.253,89.86 C 275.03,88.047 274.803,86.235 274.803,84.192 C 274.803,82.836 274.803,81.244 275.031,79.887 C 264.596,81.017 259.838,73.534 259.838,68.548 C 259.838,63.56 263.009,59.93 268.001,59.93 C 271.177,59.93 273.668,62.877 273.668,65.825 C 273.668,68.095 272.765,69.682 270.042,69.682 C 268.002,69.682 266.868,67.864 266.868,66.734 C 266.868,64.012 269.358,64.238 269.358,63.33 C 268.688,62.427 267.551,62.878 266.637,62.878 C 264.83,62.878 262.107,64.921 262.107,68.095 C 262.107,74.668 268.688,77.845 275.485,77.391 C 278.659,60.839 293.624,51.312 308.139,51.312 C 319.928,51.312 329.68,56.077 338.298,63.786 C 337.164,61.969 336.251,59.477 336.251,56.53 C 336.251,52.899 337.618,49.95 340.789,49.95 C 344.872,49.95 346.909,52.672 347.823,55.619 C 343.733,54.26 339.653,54.942 339.653,57.664 z M 252.804,102.105 C 250.313,102.105 247.36,106.414 243.966,111.18 C 246.236,110.044 251.9,107.097 254.841,104.601 C 254.841,103.465 254.621,102.105 252.804,102.105 z M 280.928,78.752 C 279.561,81.699 278.888,84.649 278.888,87.138 C 286.372,81.926 294.529,76.708 304.061,73.307 C 296.577,74.668 287.726,76.938 280.928,78.752 z M 314.032,54.942 C 315.619,56.755 315.842,56.982 315.842,59.026 C 315.842,62.426 314.032,64.691 308.819,64.691 C 306.318,64.691 303.828,63.787 301.788,63.787 C 293.173,63.787 286.592,69.457 282.735,75.579 C 291.584,73.083 304.281,69.458 319.477,69.458 C 318.563,68.774 318.11,67.639 318.11,66.051 C 318.11,64.012 319.024,62.427 321.737,61.292 C 321.517,65.375 324.008,66.961 328.999,66.961 C 332.856,66.961 333.99,68.321 333.99,70.134 L 333.53,71.496 C 338.298,72.856 343.515,74.668 345.78,75.579 C 334.893,62.653 324.46,55.168 314.032,54.942 z M 345.778,40.43 C 345.32,38.617 343.964,34.534 341.693,34.534 C 336.482,34.534 331.719,38.163 326.507,38.163 C 322.65,38.163 317.656,35.216 317.656,30.908 C 317.656,29.089 319.023,27.961 320.832,27.729 C 320.609,28.411 320.379,29.089 320.379,29.772 C 320.379,31.133 321.282,32.269 322.65,32.269 C 327.177,32.269 330.815,28.863 335.345,28.863 C 336.701,28.863 338.069,29.32 339.423,29.772 C 336.702,27.729 332.855,25.69 329.451,25.011 C 318.11,23.195 303.375,17.073 304.962,5.281 C 305.412,1.428 308.589,-0.383 311.31,0.068 C 309.954,1.203 308.589,2.107 308.589,3.925 C 308.589,10.499 316.976,10.726 321.737,10.726 C 326.728,10.726 337.163,9.591 337.163,17.531 C 337.163,20.248 334.893,22.292 332.405,22.743 C 339.203,26.143 346.001,30.682 347.591,38.617 L 345.778,40.43 z M 469.586,115.94 C 453.03,115.94 439.885,104.375 424.917,93.265 C 421.963,106.643 411.541,116.39 394.069,116.39 C 382.51,116.39 369.13,108.683 369.13,90.543 L 371.859,90.543 C 371.859,98.478 376.835,111.63 394.07,111.63 C 400.883,111.63 404.959,107.322 404.959,103.012 C 404.959,100.748 402.691,97.801 400.653,97.801 C 398.161,97.801 396.343,98.478 394.757,99.16 C 396.113,90.317 402.01,88.501 407.907,88.501 C 415.166,88.501 417.889,94.622 418.34,99.84 C 419.927,97.344 421.059,94.169 421.514,90.77 C 410.857,83.061 399.068,76.031 384.329,73.993 C 387.042,75.578 388.859,78.295 388.859,82.153 C 388.859,86.236 382.967,88.275 382.511,88.275 C 383.867,86.009 384.098,83.965 384.098,82.153 C 384.098,80.341 382.511,78.753 379.337,78.753 C 376.613,78.753 374.576,80.341 371.858,80.341 C 368.228,80.341 367.092,77.617 367.998,74.444 C 361.651,75.806 356.209,78.753 353.718,80.113 L 353.718,76.939 L 353.718,76.032 L 353.718,72.63 L 355.524,70.813 C 359.378,65.826 360.97,60.84 360.97,57.665 C 360.97,54.943 356.891,54.261 352.804,55.621 C 353.718,52.674 355.754,49.952 359.834,49.952 C 363.008,49.952 364.369,52.901 364.369,56.532 C 364.369,59.479 363.463,61.971 362.332,63.788 C 371.172,56.079 380.693,51.314 392.482,51.314 C 407.23,51.314 421.962,60.841 425.142,77.393 C 431.94,77.846 438.518,74.669 438.518,68.097 C 438.518,64.923 436.025,62.88 433.988,62.88 C 433.071,62.88 431.94,62.428 431.264,63.332 C 431.264,64.241 433.757,64.014 433.757,66.736 C 433.757,67.866 432.851,69.684 430.583,69.684 C 427.859,69.684 426.953,68.097 426.953,65.827 C 426.953,62.88 429.446,59.932 432.62,59.932 C 437.611,59.932 440.785,63.561 440.785,68.55 C 440.785,73.536 436.024,81.019 425.592,79.889 C 425.817,81.245 425.817,82.837 425.817,84.194 C 425.817,86.237 425.817,88.049 425.592,89.862 C 430.133,93.494 434.657,96.894 438.748,99.841 C 438.748,99.841 438.297,96.441 438.297,95.079 C 438.297,93.494 439.653,89.184 445.096,89.184 C 456.89,89.184 460.744,112.766 472.303,112.766 C 477.744,112.766 481.605,110.271 481.605,105.053 C 481.605,100.974 479.557,97.802 475.477,97.802 C 473.209,97.802 470.716,100.067 470.716,101.879 C 470.716,103.923 471.172,105.053 472.303,106.189 C 470.035,107.097 466.181,105.508 466.181,101.652 C 466.181,98.478 470.035,95.078 474.577,95.078 C 478.651,95.078 483.642,96.893 483.642,105.053 C 483.643,113.218 476.845,115.94 469.586,115.94 z M 371.172,25.011 C 367.768,25.69 363.919,27.729 361.2,29.772 C 362.556,29.32 363.919,28.863 365.275,28.863 C 369.815,28.863 373.445,32.269 377.97,32.269 C 379.562,32.269 380.242,31.134 380.242,29.772 C 380.242,29.089 380.242,28.411 379.786,27.729 C 381.609,27.961 382.966,29.089 382.966,30.908 C 382.966,35.216 378.205,38.163 374.12,38.163 C 368.903,38.163 364.368,34.534 358.927,34.534 C 356.659,34.534 355.303,38.617 354.852,40.43 L 353.031,38.617 C 354.622,30.682 361.421,26.143 368.228,22.743 C 365.725,22.291 363.462,20.247 363.462,17.531 C 363.462,9.591 374.12,10.726 378.886,10.726 C 383.647,10.726 392.032,10.499 392.032,3.925 C 392.032,2.107 390.901,1.203 389.314,0.068 C 392.032,-0.383 395.206,1.428 395.662,5.281 C 397.249,17.073 382.511,23.195 371.172,25.011 z M 398.836,63.787 C 396.798,63.787 394.306,64.691 391.807,64.691 C 386.822,64.691 384.779,62.426 384.779,59.026 C 384.779,56.982 385.235,56.755 386.591,54.942 C 376.163,55.169 365.726,62.653 354.853,75.578 C 357.111,74.668 362.332,72.856 367.093,71.495 L 366.642,70.133 C 366.642,68.32 367.768,66.96 371.623,66.96 C 376.613,66.96 379.106,65.374 378.887,61.291 C 381.611,62.426 382.511,64.012 382.511,66.05 C 382.511,67.638 382.061,68.773 381.15,69.457 C 396.343,69.457 409.039,73.082 418.109,75.578 C 414.028,69.457 407.451,63.787 398.836,63.787 z M 419.695,78.752 C 412.897,76.939 404.056,74.668 396.573,73.308 C 406.094,76.708 414.259,81.926 421.743,87.139 C 421.743,84.649 421.058,81.699 419.695,78.752 z M 447.819,102.105 C 446.002,102.105 445.782,103.465 445.782,104.601 C 448.72,107.097 454.397,110.044 456.655,111.18 C 453.261,106.414 450.308,102.105 447.819,102.105 z "/>
</g><g id="g1408">
	<path id="path1410" d="M 130.999,121.768 C 130.359,119.233 128.463,113.526 125.289,113.526 C 118.004,113.526 111.345,118.6 104.06,118.6 C 98.668,118.6 91.687,114.479 91.687,108.458 C 91.687,105.916 93.599,104.338 96.128,104.014 C 95.816,104.968 95.494,105.915 95.494,106.87 C 95.494,108.772 96.758,110.359 98.668,110.359 C 104.998,110.359 110.083,105.598 116.416,105.598 C 118.312,105.598 120.222,106.237 122.115,106.869 C 118.312,104.013 112.934,101.163 108.175,100.214 C 92.321,97.675 71.723,89.117 73.94,72.632 C 74.57,67.245 79.01,64.715 82.813,65.344 C 80.917,66.93 79.01,68.193 79.01,70.736 C 79.01,79.926 90.735,80.243 97.39,80.243 C 104.368,80.243 118.956,78.656 118.956,89.755 C 118.956,93.553 115.782,96.41 112.305,97.041 C 121.808,101.795 131.311,108.14 133.533,119.233 L 130.999,121.768 z "/>
</g><g id="g1412">
	<path id="path1414" d="M 567.69,119.233 C 569.911,108.14 579.411,101.795 588.917,97.041 C 585.439,96.41 582.266,93.553 582.266,89.755 C 582.266,78.656 596.852,80.243 603.832,80.243 C 610.483,80.243 622.21,79.926 622.21,70.736 C 622.21,68.194 620.304,66.931 618.408,65.344 C 622.21,64.714 626.651,67.245 627.279,72.632 C 629.5,89.116 608.902,97.675 593.044,100.214 C 588.288,101.163 582.909,104.013 579.107,106.869 C 580.998,106.236 582.909,105.598 584.805,105.598 C 591.137,105.598 596.222,110.359 602.554,110.359 C 604.46,110.359 605.728,108.772 605.728,106.87 C 605.728,105.915 605.403,104.968 605.094,104.014 C 607.623,104.338 609.535,105.915 609.535,108.458 C 609.535,114.479 602.554,118.6 597.159,118.6 C 589.874,118.6 583.218,113.526 575.932,113.526 C 572.758,113.526 570.863,119.234 570.218,121.768 L 567.69,119.233 z "/>
</g><g id="g1416">
	<path id="path1418" d="M 553.519,126.838 C 546.622,131.895 535.314,138.514 497.894,134.745 C 487.686,133.733 477.568,132.171 467.271,130.608 C 460.834,129.689 454.309,128.86 447.778,128.217 C 443.18,127.757 431.595,126.561 427.274,127.022 C 422.765,127.482 421.021,129.046 420.926,129.873 C 420.926,130.056 420.837,130.426 421.021,130.609 C 421.116,131.16 421.482,131.529 421.482,131.896 C 421.387,132.725 419.272,133.551 417.344,133.368 C 416.056,133.276 414.768,132.448 414.857,131.344 C 415.041,130.335 418.261,126.379 425.986,125.276 C 432.239,124.45 439.409,125.276 463.962,127.667 C 494.484,130.702 514.994,130.793 530.533,125.554 C 541.934,121.782 559.222,112.037 560.872,98.151 C 562.438,85.74 551.497,79.763 542.301,78.843 C 523.269,77.003 504.143,93.739 502.671,105.51 C 501.843,112.037 507.452,115.623 513.428,116.175 C 519.776,116.819 524.924,114.245 529.428,110.935 C 537.52,104.958 538.442,100.634 538.713,98.613 C 538.991,96.499 538.624,94.752 537.613,93.465 C 536.781,92.453 536.141,92.361 535.037,92.269 C 534.576,92.269 533.843,92.175 533.932,91.44 C 534.027,90.429 535.037,90.521 535.409,90.612 C 538.442,90.887 542.302,94.565 541.563,100.633 C 540.28,110.657 527.59,119.207 513.978,117.828 C 502.854,116.725 497.8,108.542 498.811,100.727 C 500.466,87.118 520.326,73.876 539.358,75.807 C 556.463,77.463 567.959,91.164 566.115,106.61 C 565.009,115.345 560.232,121.873 553.519,126.838 z "/>
</g><g id="g1420">
	<path id="path1422" d="M 135.706,107.944 C 133.865,92.498 145.358,78.796 162.466,77.141 C 181.498,75.21 201.358,88.451 203.016,102.06 C 204.024,109.876 198.967,118.059 187.844,119.162 C 174.232,120.541 161.545,111.99 160.259,101.967 C 159.521,95.899 163.383,92.22 166.416,91.946 C 166.788,91.854 167.798,91.763 167.89,92.774 C 167.982,93.508 167.248,93.603 166.787,93.603 C 165.682,93.695 165.04,93.787 164.21,94.797 C 163.199,96.084 162.833,97.832 163.11,99.945 C 163.382,101.968 164.301,106.291 172.395,112.269 C 176.899,115.578 182.047,118.151 188.393,117.509 C 194.369,116.956 199.98,113.37 199.15,106.843 C 197.678,95.074 178.552,78.338 159.52,80.176 C 150.323,81.096 139.385,87.073 140.949,99.486 C 142.601,113.37 159.887,123.117 171.291,126.887 C 186.83,132.127 207.336,132.035 237.862,129.002 C 262.415,126.611 269.584,125.784 275.838,126.611 C 283.561,127.715 286.781,131.669 286.964,132.68 C 287.056,133.784 285.768,134.613 284.479,134.704 C 282.549,134.887 280.436,134.059 280.341,133.231 C 280.341,132.864 280.708,132.497 280.802,131.944 C 280.986,131.761 280.896,131.393 280.896,131.21 C 280.802,130.382 279.055,128.819 274.549,128.358 C 270.228,127.898 258.641,129.093 254.045,129.553 C 247.514,130.197 240.988,131.026 234.552,131.944 C 224.256,133.508 214.137,135.07 203.932,136.083 C 166.509,139.853 155.199,133.231 148.304,128.175 C 141.593,123.21 136.811,116.68 135.706,107.944 z "/>
</g></g>











<metadata><rdf:RDF><cc:Work><dc:format>image/svg+xml</dc:format><dc:type rdf:resource="http://purl.org/dc/dcmitype/StillImage"/><cc:license rdf:resource="http://creativecommons.org/licenses/publicdomain/"/><dc:publisher><cc:Agent rdf:about="http://openclipart.org/"><dc:title>Open Clip Art Library</dc:title></cc:Agent></dc:publisher><dc:title>Decorative element</dc:title><dc:date>2006-11-12T01:58:20</dc:date><dc:description>Swirly ornament.</dc:description><dc:source>http://openclipart.org/detail/1374/decorative-element-by-liftarn</dc:source><dc:creator><cc:Agent><dc:title>liftarn</dc:title></cc:Agent></dc:creator><dc:subject><rdf:Bag><rdf:li>black and white</rdf:li><rdf:li>clip art</rdf:li><rdf:li>clipart</rdf:li><rdf:li>decorative</rdf:li><rdf:li>ornament</rdf:li><rdf:li>remix</rdf:li></rdf:Bag></dc:subject></cc:Work><cc:License rdf:about="http://creativecommons.org/licenses/publicdomain/"><cc:permits rdf:resource="http://creativecommons.org/ns#Reproduction"/><cc:permits rdf:resource="http://creativecommons.org/ns#Distribution"/><cc:permits rdf:resource="http://creativecommons.org/ns#DerivativeWorks"/></cc:License></rdf:RDF></metadata></svg>