<?xml version="1.0" encoding="UTF-8" standalone="no"?>
<!-- Generator: Adobe Illustrator 14.0.0, SVG Export Plug-In . SVG Version: 6.00 Build 43363)  -->
<svg xmlns:dc="http://purl.org/dc/elements/1.1/" xmlns:cc="http://creativecommons.org/ns#" xmlns:rdf="http://www.w3.org/1999/02/22-rdf-syntax-ns#" xmlns:svg="http://www.w3.org/2000/svg" xmlns="http://www.w3.org/2000/svg" xmlns:sodipodi="http://sodipodi.sourceforge.net/DTD/sodipodi-0.dtd" xmlns:inkscape="http://www.inkscape.org/namespaces/inkscape" version="1.1" id="Layer_1" x="0px" y="0px" width="590" height="374" viewBox="0 0 590.00001 373.99999" enable-background="new 0 0 605.969 389.98" xml:space="preserve" inkscape:version="0.47 r22583" sodipodi:docname="ZZ2.svg"><metadata id="metadata37"><rdf:RDF><cc:Work rdf:about=""><dc:format>image/svg+xml</dc:format><dc:type rdf:resource="http://purl.org/dc/dcmitype/StillImage"/></cc:Work></rdf:RDF></metadata><defs id="defs35"><inkscape:perspective sodipodi:type="inkscape:persp3d" inkscape:vp_x="0 : 194.99001 : 1" inkscape:vp_y="0 : 1000 : 0" inkscape:vp_z="605.96899 : 194.99001 : 1" inkscape:persp3d-origin="302.9845 : 129.99334 : 1" id="perspective39"/></defs><sodipodi:namedview pagecolor="#ffffff" bordercolor="#666666" borderopacity="1" objecttolerance="10" gridtolerance="10" guidetolerance="10" inkscape:pageopacity="0" inkscape:pageshadow="2" inkscape:window-width="1280" inkscape:window-height="1004" id="namedview33" showgrid="false" inkscape:zoom="0.60515922" inkscape:cx="294.5895" inkscape:cy="187.409" inkscape:window-x="-8" inkscape:window-y="-8" inkscape:window-maximized="1" inkscape:current-layer="Layer_1"/>
<g id="Layer_2" transform="translate(-8.3950005,-8.3990075)">
	<rect x="8.3950005" y="8.3990002" width="590" height="374" id="rect4" style="fill:#da251d"/>
</g>
<g id="XMLID_3_" transform="translate(-8.3950005,-8.3990075)">
	<g id="g7">
		<polygon points="297.285,80.399 324.195,163.221 411.286,163.221 340.827,214.411 367.745,297.24 297.285,246.049 226.833,297.24 253.743,214.417 183.285,163.221 270.375,163.221 " id="polygon9" style="fill:#ffff00"/>
	</g>
</g>
<g id="g11" transform="translate(-8.3950005,-8.3990075)">
	<path d="m 34.59,51.286 c -0.398,0.137 -0.799,0.236 -1.201,0.301 -0.402,0.063 -1.032,0.096 -1.889,0.096 -0.784,0 -1.45,-0.135 -1.998,-0.402 -0.548,-0.271 -1.005,-0.649 -1.371,-1.143 -0.365,-0.482 -0.64,-1.058 -0.822,-1.723 -0.183,-0.666 -0.287,-1.381 -0.314,-2.146 -2.1,-0.128 -3.752,-1.125 -4.958,-2.994 -1.206,-1.867 -1.809,-4.384 -1.809,-7.547 0,-3.271 0.638,-5.857 1.913,-7.759 1.276,-1.9 3.033,-2.851 5.272,-2.851 2.232,0 3.99,0.945 5.272,2.837 1.282,1.892 1.923,4.481 1.923,7.771 0,2.397 -0.364,4.455 -1.091,6.173 -0.728,1.719 -1.756,2.938 -3.084,3.657 0.013,0.993 0.174,1.679 0.483,2.059 0.309,0.378 0.852,0.566 1.629,0.566 0.299,0 0.616,-0.062 0.952,-0.185 0.336,-0.123 0.577,-0.239 0.723,-0.35 h 0.369 l 0.001,3.64 0,0 z M 29.767,40.881 c 0.319,-0.592 0.564,-1.283 0.737,-2.071 0.173,-0.788 0.259,-1.819 0.259,-3.097 0,-1.212 -0.092,-2.244 -0.274,-3.097 -0.183,-0.853 -0.427,-1.553 -0.732,-2.1 -0.319,-0.556 -0.679,-0.955 -1.081,-1.196 -0.402,-0.24 -0.819,-0.361 -1.251,-0.361 -0.458,0 -0.874,0.111 -1.246,0.335 -0.372,0.224 -0.731,0.622 -1.077,1.196 -0.306,0.528 -0.553,1.229 -0.742,2.104 -0.189,0.875 -0.284,1.919 -0.284,3.131 0,1.249 0.09,2.286 0.269,3.11 0.18,0.825 0.425,1.516 0.738,2.071 0.319,0.564 0.681,0.969 1.086,1.21 0.405,0.241 0.824,0.361 1.256,0.361 0.438,0 0.864,-0.13 1.276,-0.39 0.411,-0.255 0.766,-0.659 1.066,-1.206 z" id="path13" style="fill:#ffff00"/>
	<path d="m 42.813,46.323 c -1.994,0 -3.527,-0.661 -4.6,-1.982 C 37.14,43.02 36.604,41.087 36.604,38.544 V 25.542 h 3.727 v 12.701 c 0,1.413 0.194,2.466 0.583,3.157 0.389,0.693 1.021,1.039 1.899,1.039 0.857,0 1.486,-0.333 1.888,-0.998 0.402,-0.665 0.603,-1.73 0.603,-3.198 V 25.542 h 3.728 V 38.53 c 0,2.507 -0.523,4.432 -1.57,5.775 -1.047,1.346 -2.597,2.018 -4.649,2.018 z" id="path15" style="fill:#ffff00"/>
	<path d="M 64.229,25.542 59.106,37.396 V 45.9 H 55.378 V 37.657 L 50.166,25.544 h 4.246 l 2.91,7.272 2.801,-7.272 4.106,-0.002 0,0 z" id="path17" style="fill:#ffff00"/>
	<path d="M 65.575,45.899 V 25.542 h 10.036 v 3.883 h -6.329 v 3.568 h 5.83 v 3.883 h -5.83 v 5.141 h 6.329 V 45.9 l -10.036,-10e-4 0,0 z m 9.268,-22.641 h -2.581 l -1.645,-2.912 -1.634,2.912 h -2.542 l 3,-5.373 h 2.402 l 3,5.373 z m 3.558,-5.373 -2.073,3.637 h -1.684 l 1.236,-3.637 h 2.521 z" id="path19" style="fill:#ffff00"/>
	<path d="M 80.983,45.899 V 29.424 h -4.385 v -3.883 h 12.498 v 3.883 H 84.71 v 16.475 h -3.727 z" id="path21" style="fill:#ffff00"/>
	<path d="M 99.46,45.899 V 29.424 h -4.385 v -3.883 h 12.498 v 3.883 h -4.385 V 45.899 H 99.46 z" id="path23" style="fill:#ffff00"/>
	<path d="m 121.635,45.899 h -3.728 v -9.022 h -5.073 v 9.022 h -3.728 V 25.542 h 3.728 v 7.451 h 5.073 v -7.451 h 3.728 v 20.357 z" id="path25" style="fill:#ffff00"/>
	<path d="m 123.11,45.899 5.013,-20.356 h 4.066 l 5.013,20.356 h -3.837 l -0.927,-4.155 h -4.664 l -0.927,4.155 h -3.737 z m 10.733,-25.402 c 0,0.802 -0.301,1.6 -0.902,2.393 -0.602,0.793 -1.533,1.189 -2.795,1.189 -1.263,0 -2.189,-0.398 -2.781,-1.196 -0.591,-0.797 -0.887,-1.593 -0.887,-2.386 h 2.013 c 0,0.318 0.125,0.663 0.374,1.031 0.249,0.369 0.683,0.555 1.3,0.555 0.598,0 1.025,-0.186 1.281,-0.555 0.256,-0.368 0.384,-0.713 0.384,-1.031 h 2.013 z m -2.222,17.554 -1.515,-6.713 -1.515,6.713 h 3.03 z m 1.096,-20.166 -1.874,2.953 h -1.584 l 0.937,-2.953 h 2.521 z" id="path27" style="fill:#ffff00"/>
	<path d="m 151.394,45.899 h -3.588 l -5.72,-14.19 v 14.19 h -3.409 V 25.542 h 4.575 l 4.734,11.662 V 25.542 h 3.408 v 20.357 z" id="path29" style="fill:#ffff00"/>
	<path d="m 166.801,44.737 c -0.651,0.365 -1.497,0.721 -2.536,1.066 -1.04,0.346 -2.065,0.521 -3.075,0.521 -2.332,0 -4.191,-0.924 -5.576,-2.77 -1.385,-1.846 -2.078,-4.464 -2.078,-7.854 0,-3.19 0.692,-5.747 2.078,-7.67 1.385,-1.924 3.28,-2.886 5.686,-2.886 1.243,0 2.252,0.162 3.03,0.485 0.777,0.324 1.582,0.764 2.412,1.319 v 4.771 h -0.339 c -0.18,-0.19 -0.437,-0.462 -0.772,-0.813 -0.335,-0.352 -0.663,-0.649 -0.982,-0.896 -0.372,-0.292 -0.802,-0.542 -1.291,-0.752 -0.488,-0.209 -1.005,-0.314 -1.55,-0.314 -0.638,0 -1.219,0.138 -1.744,0.41 -0.525,0.273 -0.994,0.693 -1.405,1.259 -0.392,0.547 -0.703,1.239 -0.932,2.077 -0.229,0.84 -0.344,1.814 -0.344,2.927 0,2.379 0.435,4.134 1.306,5.264 0.87,1.13 2.06,1.695 3.568,1.695 0.133,0 0.289,-0.004 0.468,-0.015 0.18,-0.009 0.335,-0.021 0.469,-0.041 v -3.991 h -2.88 v -3.814 h 6.488 l -0.001,10.022 0,0 z" id="path31" style="fill:#ffff00"/>
</g>
</svg>